<svg xmlns="http://www.w3.org/2000/svg" version="1.1" xmlns:xlink="http://www.w3.org/1999/xlink" xmlns:svgjs="http://svgjs.dev/svgjs" width="2000" height="409" viewBox="0 0 2000 409"><g transform="matrix(1,0,0,1,-1.2121212121212466,1.1422170171186679)"><svg viewBox="0 0 396 81" data-background-color="#ffffff" preserveAspectRatio="xMidYMid meet" height="409" width="2000" xmlns="http://www.w3.org/2000/svg" xmlns:xlink="http://www.w3.org/1999/xlink"><g id="tight-bounds" transform="matrix(1,0,0,1,0.2400000000000091,-0.22620923810907811)"><svg viewBox="0 0 395.52 81.45241847621816" height="81.45241847621816" width="395.52"><g><svg viewBox="0 0 557.3604037648457 114.78143418671151" height="81.45241847621816" width="395.52"><g transform="matrix(1,0,0,1,161.84040376484583,35.46912920437342)"><svg viewBox="0 0 395.5199999999999 43.843175777964674" height="43.843175777964674" width="395.5199999999999"><g id="textblocktransform"><svg viewBox="0 0 395.5199999999999 43.843175777964674" height="43.843175777964674" width="395.5199999999999" id="textblock"><g><svg viewBox="0 0 395.5199999999999 43.843175777964674" height="43.843175777964674" width="395.5199999999999"><g transform="matrix(1,0,0,1,0,0)"><svg width="395.5199999999999" viewBox="4.300000190734863 -32.5 297.2300109863281 32.95000076293945" height="43.843175777964674" data-palette-color="#6230a3"><path d="M15.2-32.15Q20.05-32.15 22.68-29.68 25.3-27.2 25.3-22.55L25.3-22.55Q25.3-17.15 21.98-14 18.65-10.85 12.85-10.85L12.85-10.85 9.3-10.85 9.3-10.1 9.55 0 4.3 0 4.65-9.65 4.3-32.1 15.2-32.15ZM14.35-14.85Q17.1-15.4 18.53-17.23 19.95-19.05 19.95-22.1L19.95-22.1Q19.95-25.1 18.43-26.55 16.9-28 13.8-28.1L13.8-28.1 9.55-27.95 9.35-14.95 14.35-14.85ZM45.7-12.85Q49.1-7.4 53.75-1.2L53.75-1.2 53.7-0.6Q51.3 0.2 48.75 0.45L48.75 0.45 48.15 0.05Q44-6.75 41.45-11.45L41.45-11.45 36-11.45 36-10.1 36.25 0 31 0 31.35-9.65 31-32.1 41.9-32.15Q46.75-32.15 49.4-29.73 52.05-27.3 52.05-22.8L52.05-22.8Q52.05-19.6 50.37-17.03 48.7-14.45 45.7-12.85L45.7-12.85ZM36.25-27.95L36.1-15.65 41.6-15.5Q46.65-17.05 46.65-22.4L46.65-22.4Q46.65-25.2 45.12-26.6 43.6-28 40.5-28.1L40.5-28.1 36.25-27.95ZM71.1-32.5Q77.75-32.5 81.35-28.4 84.95-24.3 84.95-16.7L84.95-16.7Q84.95-8.5 81.1-4.03 77.25 0.45 70.15 0.45L70.15 0.45Q63.55 0.45 59.97-3.78 56.4-8 56.4-15.75L56.4-15.75Q56.4-23.8 60.22-28.15 64.05-32.5 71.1-32.5L71.1-32.5ZM70.7-28.3Q66.15-28.3 63.92-25.38 61.7-22.45 61.7-16.35L61.7-16.35Q61.7-9.7 63.87-6.63 66.05-3.55 70.6-3.55L70.6-3.55Q75.2-3.55 77.4-6.5 79.6-9.45 79.6-15.7L79.6-15.7Q79.6-22.25 77.42-25.28 75.25-28.3 70.7-28.3L70.7-28.3ZM101.74-32.15Q106.59-32.15 109.22-29.68 111.84-27.2 111.84-22.55L111.84-22.55Q111.84-17.15 108.52-14 105.19-10.85 99.39-10.85L99.39-10.85 95.84-10.85 95.84-10.1 96.09 0 90.84 0 91.19-9.65 90.84-32.1 101.74-32.15ZM100.89-14.85Q103.64-15.4 105.07-17.23 106.49-19.05 106.49-22.1L106.49-22.1Q106.49-25.1 104.97-26.55 103.44-28 100.34-28.1L100.34-28.1 96.09-27.95 95.89-14.95 100.89-14.85ZM128.79-4.15L136.54-4.4 136.84-3.95 136.49 0 117.54 0 117.89-9.65 117.54-32.1 136.59-32.1 136.89-31.65 136.49-27.7 128.89-27.9 122.79-27.85 122.64-18.5 128.44-18.4 133.74-18.55 134.09-18.15 133.69-14.2 128.04-14.35 122.59-14.25 122.54-10.1 122.69-4.2 128.79-4.15ZM156.89-12.85Q160.29-7.4 164.94-1.2L164.94-1.2 164.89-0.6Q162.49 0.2 159.94 0.45L159.94 0.45 159.34 0.05Q155.19-6.75 152.64-11.45L152.64-11.45 147.19-11.45 147.19-10.1 147.44 0 142.19 0 142.54-9.65 142.19-32.1 153.09-32.15Q157.94-32.15 160.59-29.73 163.24-27.3 163.24-22.8L163.24-22.8Q163.24-19.6 161.56-17.03 159.89-14.45 156.89-12.85L156.89-12.85ZM147.44-27.95L147.29-15.65 152.79-15.5Q157.84-17.05 157.84-22.4L157.84-22.4Q157.84-25.2 156.31-26.6 154.79-28 151.69-28.1L151.69-28.1 147.44-27.95ZM188.34-32.1L188.64-31.65 188.34-27.75 182.54-28.05 179.84-28.05 179.59-10.1 179.84 0 174.64 0 174.94-9.65 174.69-28.05 171.99-28.05 166.09-27.75 165.74-28.2 166.14-32.1 188.34-32.1ZM205.03-11.4L204.98-9.2 205.18 0 200.03 0 200.28-9.2 200.23-11.15 190.08-32.1 195.58-32.1 196.23-30.1 202.58-16.65 202.98-16.65 210.03-30 210.83-32.1 216.18-32.1 205.03-11.4ZM231.78-32.15Q236.63-32.15 239.26-29.68 241.88-27.2 241.88-22.55L241.88-22.55Q241.88-17.15 238.56-14 235.23-10.85 229.43-10.85L229.43-10.85 225.88-10.85 225.88-10.1 226.13 0 220.88 0 221.23-9.65 220.88-32.1 231.78-32.15ZM230.93-14.85Q233.68-15.4 235.11-17.23 236.53-19.05 236.53-22.1L236.53-22.1Q236.53-25.1 235.01-26.55 233.48-28 230.38-28.1L230.38-28.1 226.13-27.95 225.93-14.95 230.93-14.85ZM262.28-12.85Q265.68-7.4 270.33-1.2L270.33-1.2 270.28-0.6Q267.88 0.2 265.33 0.45L265.33 0.45 264.73 0.05Q260.58-6.75 258.03-11.45L258.03-11.45 252.58-11.45 252.58-10.1 252.83 0 247.58 0 247.93-9.65 247.58-32.1 258.48-32.15Q263.33-32.15 265.98-29.73 268.63-27.3 268.63-22.8L268.63-22.8Q268.63-19.6 266.95-17.03 265.28-14.45 262.28-12.85L262.28-12.85ZM252.83-27.95L252.68-15.65 258.18-15.5Q263.23-17.05 263.23-22.4L263.23-22.4Q263.23-25.2 261.7-26.6 260.18-28 257.08-28.1L257.08-28.1 252.83-27.95ZM287.68-32.5Q294.33-32.5 297.93-28.4 301.53-24.3 301.53-16.7L301.53-16.7Q301.53-8.5 297.68-4.03 293.83 0.45 286.73 0.45L286.73 0.45Q280.13 0.45 276.55-3.78 272.98-8 272.98-15.75L272.98-15.75Q272.98-23.8 276.8-28.15 280.63-32.5 287.68-32.5L287.68-32.5ZM287.28-28.3Q282.73-28.3 280.5-25.38 278.28-22.45 278.28-16.35L278.28-16.35Q278.28-9.7 280.45-6.63 282.63-3.55 287.18-3.55L287.18-3.55Q291.78-3.55 293.98-6.5 296.18-9.45 296.18-15.7L296.18-15.7Q296.18-22.25 294-25.28 291.83-28.3 287.28-28.3L287.28-28.3Z" opacity="1" transform="matrix(1,0,0,1,0,0)" fill="#6230a3" class="undefined-text-0" data-fill-palette-color="primary" id="text-0"></path></svg></g></svg></g></svg></g></svg></g><g><svg viewBox="0 0 151.49008219988704 114.78143418671151" height="114.78143418671151" width="151.49008219988704"><g><svg xmlns="http://www.w3.org/2000/svg" xmlns:xlink="http://www.w3.org/1999/xlink" version="1.1" x="0" y="0" viewBox="-346 268.8289489746094 99.87300109863281 75.67205810546875" enable-background="new -346 256 100 100" xml:space="preserve" height="114.78143418671151" width="151.49008219988704" class="icon-icon-0" data-fill-palette-color="accent" id="icon-0"><g fill="#fec200" data-fill-palette-color="accent"><path d="M-246.711 326.434l-17.927-15.862c-0.435-0.384-1.031-0.523-1.589-0.377l-11.863 3.13c-0.689 0.182-1.198 0.77-1.278 1.479l-0.291 2.602-5.915-1.45-0.001-13.853 6.229 5.688 5.601-6.134-35.966-32.828-15.987 14.318v-6.657h-8.544v14.31L-346 301.331l5.542 6.187 6.217-5.566 0.039 42.549 10.589-0.001v-23.083h10.182v23.082l27.861-0.001-0.003-26.588 5.701 1.397-0.863 7.697c-0.064 0.562 0.151 1.121 0.578 1.494l17.747 15.572c0.328 0.288 0.735 0.43 1.142 0.43 0.477 0 0.949-0.196 1.291-0.579l13.411-15.039c0.308-0.344 0.463-0.795 0.436-1.254C-246.158 327.169-246.367 326.739-246.711 326.434zM-313.432 311.913h-10.182v-10.501h10.182V311.913zM-295.839 311.913h-10.182v-10.501h10.182V311.913zM-261.419 340.337l-15.778-13.845 0.714-6.355 2.646 0.648c0.095 1.154 0.898 2.172 2.084 2.461 1.481 0.364 2.978-0.542 3.343-2.025 0.364-1.483-0.543-2.979-2.026-3.342-1.129-0.276-2.263 0.187-2.902 1.075l-2.932-0.719 0.21-1.867 9.821-2.592 15.934 14.098L-261.419 340.337z" fill="#fec200" data-fill-palette-color="accent"></path></g></svg></g></svg></g></svg></g><defs></defs></svg><rect width="395.52" height="81.45241847621816" fill="none" stroke="none" visibility="hidden"></rect></g></svg></g></svg>